<?xml version="1.0" encoding="utf-8"?>
<!-- Generator: Adobe Illustrator 18.1.1, SVG Export Plug-In . SVG Version: 6.00 Build 0)  -->
<svg version="1.1" id="Layer_1" xmlns="http://www.w3.org/2000/svg" xmlns:xlink="http://www.w3.org/1999/xlink" x="0px" y="0px"
	 viewBox="0 0 600 600" enable-background="new 0 0 600 600" xml:space="preserve">
<g>
	<path fill="none" d="M158.6,437.1c0.1,0.8,0.1,1.6,0.2,2.4C158.7,438.7,158.7,437.9,158.6,437.1z"/>
	<path fill="none" d="M171.5,468.9c0,0.1,0,0.2,0,0.3C171.5,469.1,171.5,469,171.5,468.9z"/>
	<path fill="none" d="M159.3,443.6c0,0.2,0,0.4,0.1,0.5C159.4,444,159.3,443.8,159.3,443.6z"/>
	<path fill="none" d="M170.9,474.3c0,0,0.3-2.1,0.5-3.7C171.3,471.5,171.1,472.6,170.9,474.3z"/>
	<path fill="none" d="M159,440.7c0,0.4,0.1,0.8,0.1,1.1C159,441.4,159,441.1,159,440.7z"/>
	<path fill="none" d="M262.6,497.4c2.2-9.1,4.4-18.3,4.5-27.8C266.8,479.7,263.8,492.3,262.6,497.4z"/>
	<path fill="none" d="M264.2,498.2c-0.1,0-0.2,0-0.3,0C264,498.2,264.1,498.3,264.2,498.2z"/>
	<path fill="none" d="M159.8,446.4c0,0,0,0.1,0,0.1C159.8,446.5,159.8,446.4,159.8,446.4z"/>
	<path fill="none" d="M257.3,507.1c2.2-3.1,4.4-6.1,6.5-9l0,0c-0.3-0.2-0.7-0.4-1.2-0.7C262.2,499.3,260,503,257.3,507.1z"/>
	<path fill="#050404" d="M250.1,517.5c2.3-3.2,5-6.9,7.2-10.3C254.9,510.5,252.4,513.9,250.1,517.5z"/>
	<path fill="#FDFDFD" d="M171.5,469.2c0,0.4-0.1,0.9-0.1,1.4C171.5,470.1,171.5,469.6,171.5,469.2z"/>
	<path fill="#FDFDFD" d="M267.1,467c0,0.9,0,1.7,0,2.6C267.1,468.7,267.1,467.9,267.1,467z"/>
	<path fill="#FDFDFD" d="M159.4,444.2c0.1,0.7,0.2,1.5,0.4,2.2C159.6,445.6,159.5,444.9,159.4,444.2z"/>
	<path fill="#FDFDFD" d="M158.8,439.5c0,0.4,0.1,0.8,0.1,1.2C158.9,440.3,158.9,439.9,158.8,439.5z"/>
	<path fill="#FDFDFD" d="M159.1,441.8c0.1,0.6,0.2,1.2,0.2,1.8C159.2,443,159.2,442.4,159.1,441.8z"/>
	<path fill="#FDFDFD" d="M159.8,446.5c1.7,9.3,4.9,18.4,10.9,27.4l0,0C164.7,464.9,161.4,455.8,159.8,446.5z"/>
	<circle fill="#050404" cx="267.7" cy="156.6" r="8.6"/>
	<path fill="#050404" d="M349.9,517.5c-2.3-3.2-5-6.9-7.2-10.3c-2.2-3.1-1.9-5.5-4-8.5l0-0.6c-0.1,0-0.1,0.1-0.2,0.1
		c-0.1,0-0.2,0.1-0.3,0c-11.9-1-26.3-1.7-38.2-1.5c-11.9-0.2-26.3,0.5-38.2,1.5c-0.1,0-0.2,0-0.3,0c-0.1,0-0.1,0-0.2-0.1l0,0.6
		c-2.1,3-1.8,5.4-4,8.5c-2.3,3.4-4.9,7.1-7.2,10.3c-1.5,2.2-4-1.2-5.6,3.4c5.1,0.4,9.5-0.2,14.2-0.6c13.8-1.1,27.6-2,41.3-2.1
		c13.8,0,27.6,1,41.3,2.1c4.7,0.4,9.1,0.9,14.2,0.6C354,516.3,351.4,519.7,349.9,517.5z"/>
	<path fill="#050404" d="M487.3,272.3c-12.1-14.6-25.4-28.4-41.1-38.7c-26.1-17-38.9-41.7-45.8-70.8c-3.9-16.3-9.4-32.3-12.4-48.8
		c-3.6-19.9-15.9-32-33.2-38.7c-18.1-7.1-36.5-10.3-54.8-10c-18.3-0.3-36.7,2.9-54.8,10c-17.3,6.7-29.6,18.8-33.2,38.7
		c-3,16.5-8.6,32.4-12.4,48.8c-6.9,29.1-19.7,53.8-45.8,70.8c-15.8,10.3-29,24-41.1,38.7c-20.6,24.9-32.5,53.1-32.3,85.9
		c0.1,7.1,1.3,14,6.1,19.6c6.5,7.6,13.1,7,17.8-1.6c2.6-4.7,4.5-9.8,6.3-14.9c8.4-24.5,20.7-46.6,39.1-65.2c4-4,8.6-7.1,14.5-7.8
		c0.9,2.9-1,4.4-1.9,6c-8.6,15.3-16.2,31.1-22.2,47.6c-12.8,35.1-20.9,71-14.1,108.6c5.6,31.2,22.9,53.1,53.7,63.1
		c0.3,0.1,0.6,0.2,0.9,0.3c27,8.5-10.8-23-8.1-37.9c-6-9.1-11-20.2-12.6-29.5c0,0,0-0.1,0-0.1c-0.1-0.7-0.3-1.5-0.4-2.2
		c0-0.2,0-0.4-0.1-0.5c-0.1-0.6-0.2-1.2-0.2-1.8c0-0.4-0.1-0.8-0.1-1.1c0-0.4-0.1-0.8-0.1-1.2c-0.1-0.8-0.1-1.6-0.2-2.4
		c-2.3-30.5,4.6-59.6,14.3-88.1c10.6-31,22-61.7,39.6-89.6c4.7-7.5,10.3-14.3,17-20.1c3.5-3,4.6-6.3,4.8-10.8
		c1.1-30.5,2.4-61,3.6-91.5c0.4-9.4,1.3-18.6,7.5-26.3c10.1-12.7,27-11.1,34.2,3.4c2.9,5.8,4.8,12,7.6,17.8
		c2.6,5.3,6.3,9.9,12.8,10.3c6.5-0.4,10.2-5,12.8-10.3c2.8-5.8,4.7-12,7.6-17.8c7.2-14.5,24.1-16,34.2-3.4
		c6.2,7.7,7.1,16.9,7.5,26.3c1.2,30.5,2.5,61,3.6,91.5c0.2,4.5,1.3,7.8,4.8,10.8c6.7,5.7,12.2,12.6,17,20.1
		c17.7,27.9,29,58.6,39.6,89.6c9.8,28.5,16.6,57.6,14.3,88.1c-0.1,0.8-0.1,1.6-0.2,2.4c0,0.4-0.1,0.8-0.1,1.2c0,0.4-0.1,0.8-0.1,1.1
		c-0.1,0.6-0.2,1.2-0.2,1.8c0,0.2,0,0.4-0.1,0.5c-0.1,0.7-0.2,1.5-0.4,2.2c0,0,0,0.1,0,0.1c-1.7,9.3-6.7,20.4-12.6,29.5
		c2.7,14.9-35.1,46.4-8.1,37.9c0.3-0.1,0.6-0.2,0.9-0.3c30.8-10,48.1-32,53.7-63.1c6.8-37.6-1.3-73.5-14.1-108.6
		c-6-16.5-13.6-32.3-22.2-47.6c-0.9-1.6-2.8-3.1-1.9-6c5.9,0.6,10.5,3.8,14.5,7.8c18.3,18.5,30.6,40.7,39.1,65.2
		c1.8,5.1,3.7,10.2,6.3,14.9c4.7,8.7,11.3,9.2,17.8,1.6c4.8-5.6,6.1-12.5,6.1-19.6C519.8,325.5,507.9,297.3,487.3,272.3z"/>
	<path fill="none" d="M441.4,437.1c-0.1,0.8-0.1,1.6-0.2,2.4C441.3,438.7,441.3,437.9,441.4,437.1z"/>
	<path fill="none" d="M428.5,468.9c0,0.1,0,0.2,0,0.3C428.5,469.1,428.5,469,428.5,468.9z"/>
	<path fill="none" d="M440.7,443.6c0,0.2,0,0.4-0.1,0.5C440.6,444,440.7,443.8,440.7,443.6z"/>
	<path fill="none" d="M429.1,474.3c0,0-0.3-2.1-0.5-3.7C428.7,471.5,428.9,472.6,429.1,474.3z"/>
	<path fill="none" d="M441,440.7c0,0.4-0.1,0.8-0.1,1.1C441,441.4,441,441.1,441,440.7z"/>
	<path fill="none" d="M337.4,497.4c-2.2-9.1-4.4-18.3-4.5-27.8C333.2,479.7,336.2,492.3,337.4,497.4z"/>
	<path fill="none" d="M335.8,498.2c0.1,0,0.2,0,0.3,0C336,498.2,335.9,498.3,335.8,498.2z"/>
	<path fill="none" d="M440.2,446.4c0,0,0,0.1,0,0.1C440.2,446.5,440.2,446.4,440.2,446.4z"/>
	<path fill="none" d="M342.7,507.1c-2.2-3.1-4.4-6.1-6.5-9l0,0c0.3-0.2,0.7-0.4,1.2-0.7C337.8,499.3,340,503,342.7,507.1z"/>
	<path fill="#050404" d="M349.9,517.5c-2.3-3.2-5-6.9-7.2-10.3C345.1,510.5,347.6,513.9,349.9,517.5z"/>
	<path fill="#FDFDFD" d="M427.1,349c-10.6-31-22-61.7-39.6-89.6c-4.7-7.5-10.3-14.3-17-20.1c-3.5-3-4.6-6.3-4.8-10.8
		c-1.1-30.5-2.4-61-3.6-91.5c-0.4-9.4-1.3-18.6-7.5-26.3c-10.1-12.7-27-11.1-34.2,3.4c-2.9,5.8-4.8,12-7.6,17.8
		c-2.6,5.3-6.3,9.9-12.8,10.3c-6.5-0.4-10.2-5-12.8-10.3c-2.8-5.8-4.7-12-7.6-17.8c-7.2-14.5-24.1-16-34.2-3.4
		c-6.2,7.7-7.1,16.9-7.5,26.3c-1.2,30.5-2.5,61-3.6,91.5c-0.2,4.5-1.3,7.8-4.8,10.8c-6.7,5.7-12.2,12.6-17,20.1
		c-17.7,27.9-29,58.6-39.6,89.6c-9.8,28.5-16.6,57.6-14.3,88.1c0.1,0.8,0.1,1.6,0.2,2.4c0,0.4,0.1,0.8,0.1,1.2
		c0,0.4,0.1,0.8,0.1,1.1c0.1,0.6,0.2,1.2,0.2,1.8c0,0.2,0,0.4,0.1,0.5c0.1,0.7,0.2,1.5,0.4,2.2c0,0,0,0.1,0,0.1
		c1.7,9.3,4.9,18.4,10.9,27.4c0.1,0.1,0.2,0.3,0.2,0.4c0.2-1.7,0.4-2.8,0.5-3.7c0.1-0.6,0.1-1.1,0.1-1.4c0-0.1,0-0.2,0-0.3
		c0.3-16.3,7.6-23.8,24.2-24.4c2.8-0.1,4-1.4,5.5-3.2c10.7-13.5,25.3-13.6,35.7-0.2c2,2.5,3.7,3.4,7,3.4
		c13.7-0.2,22.7,9.1,23.1,22.6c0,0.8,0,1.7,0,2.6c-0.1,9.5-2.2,18.7-4.5,27.8c-1,0.4-0.8,0.6-0.5,0.7c0.1,0,0.1,0.1,0.2,0.1
		c0.1,0,1.9,0,2,0c11.9-1,23.9-1.7,35.8-1.5c11.9-0.2,23.9,0.5,35.8,1.5c0.1,0,1.9,0,2,0c0.1,0,0.1,0,0.2-0.1
		c0.3-0.2,0.5-0.3-0.5-0.7c-2.2-9.1-4.4-18.3-4.5-27.8c0-0.9,0-1.8,0-2.6c0.4-13.5,9.4-22.8,23.1-22.6c3.3,0,5-0.9,7-3.4
		c10.4-13.4,25-13.2,35.7,0.2c1.5,1.9,2.7,3.2,5.5,3.2c16.6,0.6,23.9,8.1,24.2,24.4c0,0.1,0,0.2,0,0.3c0,0.4,0.1,0.9,0.1,1.4
		c0.1,0.9,0.3,2,0.5,3.7c0.1-0.1,0.2-0.3,0.2-0.4c6-9.1,9.2-18.1,10.9-27.4c0,0,0-0.1,0-0.1c0.1-0.7,0.3-1.5,0.4-2.2
		c0-0.2,0-0.4,0.1-0.5c0.1-0.6,0.2-1.2,0.2-1.8c0-0.4,0.1-0.8,0.1-1.1c0-0.4,0.1-0.8,0.1-1.2c0.1-0.8,0.1-1.6,0.2-2.4
		C443.7,406.6,436.8,377.5,427.1,349z M259.1,156.6c0-4.7,3.8-8.6,8.6-8.6c4.7,0,8.6,3.8,8.6,8.6c0,4.7-3.8,8.6-8.6,8.6
		C262.9,165.2,259.1,161.4,259.1,156.6z M300,201c-20.3,0-36.8-6.3-36.8-14.2s16.5-14.2,36.8-14.2c20.3,0,36.8,6.3,36.8,14.2
		S320.3,201,300,201z M332.3,165.2c-4.7,0-8.6-3.8-8.6-8.6c0-4.7,3.8-8.6,8.6-8.6c4.7,0,8.6,3.8,8.6,8.6
		C340.9,161.4,337.1,165.2,332.3,165.2z"/>
	<path fill="#FDFDFD" d="M428.5,469.2c0,0.4,0.1,0.9,0.1,1.4C428.5,470.1,428.5,469.6,428.5,469.2z"/>
	<path fill="#FDFDFD" d="M332.9,467c0,0.9,0,1.7,0,2.6C332.9,468.7,332.9,467.9,332.9,467z"/>
	<path fill="#FDFDFD" d="M440.6,444.2c-0.1,0.7-0.2,1.5-0.4,2.2C440.4,445.6,440.5,444.9,440.6,444.2z"/>
	<path fill="#FDFDFD" d="M441.2,439.5c0,0.4-0.1,0.8-0.1,1.2C441.1,440.3,441.1,439.9,441.2,439.5z"/>
	<path fill="#FDFDFD" d="M440.9,441.8c-0.1,0.6-0.2,1.2-0.2,1.8C440.8,443,440.8,442.4,440.9,441.8z"/>
	<path fill="#FDFDFD" d="M440.2,446.5c-1.7,9.3-4.9,18.4-10.9,27.4l0,0C435.3,464.9,438.6,455.8,440.2,446.5z"/>
	<ellipse fill="#FAA631" cx="300" cy="186.8" rx="36.8" ry="14.2"/>
	<circle fill="#050404" cx="332.3" cy="156.6" r="8.6"/>
	<path fill="#AF0022" d="M484.6,269.1c-14.1-18.7-55.3-49.2-55.3-49.2c-29.2,0-55.9,22.1-55.9,22.1c-21.1,18.5-73.4,14-73.4,14
		s-52.4,4.5-73.4-14c0,0-26.8-22.1-55.9-22.1c0,0-41.2,30.5-55.3,49.2c0,0,32.1-0.5,30.4,31.1c0,0,11.7-12.7,18.5-11.9
		c0,0-12.9,16.6-24.1,53.6c-11.2,37-27.7,76.9-8.9,127.3c0,0,19-10.6,44.7-12.8c25.6-2.3,86.6,12,124.1,12s98.5-14.2,124.1-12
		c25.6,2.3,44.7,12.8,44.7,12.8c18.8-50.3,2.3-90.3-8.9-127.3c-11.2-37-24.1-53.6-24.1-53.6c6.8-0.7,18.5,11.9,18.5,11.9
		C452.5,268.6,484.6,269.1,484.6,269.1z"/>
	<path fill="#FAA631" d="M262.6,497.4c1.2-5.2,4.2-17.7,4.5-27.8c0-0.9,0-1.7,0-2.6c-0.4-13.5-9.4-22.8-23.1-22.6
		c-3.3,0-5-0.9-7-3.4c-10.4-13.4-25-13.2-35.7,0.2c-1.5,1.9-2.7,3.2-5.5,3.2c-16.6,0.6-23.9,8.1-24.2,24.4c0,0.1,0,0.2,0,0.3
		c0,0.4-0.1,0.9-0.1,1.4c-0.2,1.7-0.5,3.7-0.5,3.7c0.7,18.9,14.7,42.6,16.8,44.9c14.1,16.1,38.9,19.2,56.1,6.4
		c0.3-0.2,3-3.7,6.3-8.2c2.3-3.6,4.8-7,7.2-10.3C260,503,262.2,499.3,262.6,497.4z"/>
	<path fill="#FAA631" d="M337.4,497.4c-1.2-5.2-4.2-17.7-4.5-27.8c0-0.9,0-1.7,0-2.6c0.4-13.5,9.4-22.8,23.1-22.6c3.3,0,5-0.9,7-3.4
		c10.4-13.4,25-13.2,35.7,0.2c1.5,1.9,2.7,3.2,5.5,3.2c16.6,0.6,23.9,8.1,24.2,24.4c0,0.1,0,0.2,0,0.3c0,0.4,0.1,0.9,0.1,1.4
		c0.2,1.7,0.5,3.7,0.5,3.7c-0.7,18.9-14.7,42.6-16.8,44.9c-14.1,16.1-38.9,19.2-56.1,6.4c-0.3-0.2-3-3.7-6.3-8.2
		c-2.3-3.6-4.8-7-7.2-10.3C340,503,337.8,499.3,337.4,497.4z"/>
</g>
<circle fill="#FFFFFF" cx="300" cy="353.7" r="76.4"/>
<g>
	<path fill="#AF0022" d="M303.8,334.5c-1.8,1.5-3.3,3.3-4.7,5.1c-5,6.4-9,13.3-10.9,21.3c-2.3,9.7-1.3,19.1,2.2,28.3
		c0.5,1.2,0.6,2.3-0.1,3.4c-0.6,1.1-1,2.3-1.5,3.7c-0.7-2-1.3-3.8-2-5.5c-5-14-10.1-27.9-15.1-41.9c-1.5-4.3-2.5-8.6-3.3-13.1
		c-0.1-0.4-0.2-0.7-0.3-1.1c0,0.4,0,0.8,0,1.2c0,21.5,0,43,0,64.6c0,0.9-0.2,1.3-1.2,1.2c-4.9-0.1-9.7,0-14.6,0c-0.7,0-1-0.1-1-1
		c0-30.1,0-60.2,0-90.3c0-0.8,0.2-0.9,1-0.9c6.7,0,13.4,0,20.1,0c0.6,0,0.9,0.2,1.1,0.8c4.7,12.7,9.5,25.4,14.3,38.1
		c0.1,0.3,0.2,0.5,0.3,0.8c0.3-0.2,0.4-0.5,0.5-0.8c2.8-6.5,4.9-13.3,5.9-20.3c1.6-11.1,0.1-21.7-6.3-31.2c-0.9-1.3-1.8-2.5-2.8-3.8
		c0.6-0.2,1,0.3,1.4,0.6c4.2,2.9,7.6,6.6,10.6,10.7c6.1,8.3,9.5,17.6,10.2,27.9c0.6,9.2-1.1,18.1-4.3,26.7
		c-1.9,5.1-3.9,10.1-5.9,15.3c-0.7-1.6-1.3-3.1-1.6-4.7c-1-5-0.8-10,0-15c0.9-5.6,2.5-11,5.2-16c0.8-1.5,1.8-2.9,2.8-4.2
		c0-0.1,0.1-0.1,0.1-0.2c0.1-0.1,0.2-0.2,0.1-0.3c-0.1-0.1-0.2,0-0.3,0.1C303.9,334.4,303.8,334.5,303.8,334.5z"/>
	<path fill="#544E48" d="M331.1,334.9c-0.7,4.5-2.1,8.8-3.7,13.1c-2.9,7.6-5.8,15.1-8.8,22.7c-3.9,10.1-7.9,20.3-11.8,30.4
		c-0.2,0.5-0.3,0.8-1,0.8c-4.9,0-9.7,0-14.6,0c-0.2,0-0.3,0-0.5-0.1c1-2.6,2-5.2,3-7.7c10.7-26.7,20.9-53.6,31.4-80.4
		c0.4-1.1,0.9-2.2,1.3-3.3c0.2-0.5,0.4-0.6,0.9-0.6c6.8,0,13.7,0,20.5,0c0.8,0,0.7,0.4,0.7,0.9c0,9.4,0,18.9,0,28.3
		c0,20.6,0,41.2,0,61.7c0,0.9-0.2,1.1-1.1,1.1c-5.1,0-10.3,0-15.4,0c-0.8,0-1-0.2-1-1c0-21.6,0-43.2,0-64.8
		C331.1,335.7,331.1,335.3,331.1,334.9z"/>
</g>
<path d="M351.5,144.8c-1.5-1.6-13.5-1.9-20.6-1.9c-16.2,0-17.5,1.4-18,1.9c-0.3,0.3-0.6,0.8-0.8,1.5c-1.9-0.8-5.5-1.6-12.1-1.6
	c-6.7,0-10.3,0.8-12.2,1.6c-0.2-0.5-0.4-0.9-0.7-1.2c-1.7-1.8-11.3-2.2-19.1-2.2c-6.5,0-17.6,0.3-19.4,2.2c-2.7,2.9-2.1,20.7,0,23
	c1.5,1.6,13.5,1.9,20.6,1.9c16.2,0,17.5-1.4,18-1.9c2.2-2.4,2.3-13.6,1.4-19c1-0.5,3.9-1.6,11.5-1.6c7.5,0,10.5,1.1,11.5,1.6
	c-0.9,5.8-0.6,16.4,1.5,18.7c1.7,1.8,11.3,2.2,19.1,2.2c6.5,0,17.6-0.3,19.4-2.2C354.1,164.9,353.5,147.1,351.5,144.8z M332,167.2
	c-11.2,0-16.4-0.9-17-1.3c-1.6-1.7-1.6-17.1,0-19.1c0.6-0.3,4.7-1,15.9-1c11,0,17.4,0.7,18.5,1.1c1.1,2.1,1.5,17.4,0,19
	C348.8,166.2,343.5,167.2,332,167.2z M269.1,167.2c-11,0-17.4-0.7-18.5-1.1c-1.1-2.1-1.5-17.4,0-19c0.6-0.4,5.9-1.4,17.4-1.4
	c11.2,0,16.4,0.9,17,1.3c1.6,1.7,1.6,17.1,0,19.1C284.4,166.4,280.3,167.2,269.1,167.2z"/>
</svg>
